<?xml version="1.0" standalone="no"?>
<!DOCTYPE svg PUBLIC "-//W3C//DTD SVG 20010904//EN"
 "http://www.w3.org/TR/2001/REC-SVG-20010904/DTD/svg10.dtd">
<svg version="1.0" xmlns="http://www.w3.org/2000/svg"
 width="70.000000pt" height="70.000000pt" viewBox="0 0 70.000000 70.000000"
 preserveAspectRatio="xMidYMid meet">
<metadata>
Created by potrace 1.11, written by Peter Selinger 2001-2013
</metadata>
<g transform="translate(0.000000,70.000000) scale(0.100000,-0.100000)"
fill="#000000" stroke="none">
<path d="M267 655 c-47 -24 -92 -47 -99 -51 -7 -5 -15 -9 -18 -10 -37 -11 -50
-18 -50 -26 0 -5 -3 -7 -7 -5 -5 3 -23 -5 -42 -17 l-34 -22 1 -154 c0 -85 1
-160 1 -166 1 -7 9 -14 19 -18 9 -3 36 -17 60 -30 23 -14 45 -25 47 -25 3 0
29 -13 58 -28 28 -15 54 -27 57 -28 3 0 24 -11 48 -23 l43 -23 104 51 c57 29
106 51 107 49 2 -1 25 12 52 29 27 17 52 29 57 27 11 -8 20 29 15 59 -3 16 0
26 7 26 8 0 8 3 2 8 -14 10 -14 72 -1 72 7 0 7 3 1 8 -13 9 -14 65 0 74 6 5 6
8 0 8 -6 0 -10 20 -9 45 l1 45 -167 84 -166 84 -87 -43z"/>
</g>
</svg>
